<?xml version="1.0" encoding="UTF-8"?>
<svg width="908px" height="157px" viewBox="0 0 908 157" version="1.1" xmlns="http://www.w3.org/2000/svg" xmlns:xlink="http://www.w3.org/1999/xlink">
    <!-- Generator: Sketch 57.1 (83088) - https://sketch.com -->
    <title>CDE Logo with text</title>
    <desc>Created with Sketch.</desc>
    <g id="CDE-Logo-with-text" stroke="none" stroke-width="1" fill="none" fill-rule="evenodd">
        <g id="CDE-Logo-White-2tone-Transparency" transform="translate(0.000000, -0.500000)" fill="#000000" fill-rule="nonzero"  fill-opacity="0.75">
            <path d="M92.75,59.7009619 L124.020181,77.7548095 C128.197096,80.1663522 130.770181,84.623067 130.770181,89.4461524 L130.770181,125.553848 C130.770181,130.376933 128.197096,134.833648 124.020181,137.245191 L92.75,155.299038 C88.5730855,157.710581 83.4269145,157.710581 79.25,155.299038 L47.9798187,137.245191 C43.8029042,134.833648 41.2298187,130.376933 41.2298187,125.553848 L41.2298187,89.4461524 C41.2298187,84.623067 43.8029042,80.1663522 47.9798187,77.7548095 L79.25,59.7009619 C83.4269145,57.2894192 88.5730855,57.2894192 92.75,59.7009619 Z M83.75,67.4951905 L52.4798187,85.5490381 C51.0875139,86.3528857 50.2298187,87.8384573 50.2298187,89.4461524 L50.2298187,125.553848 C50.2298187,127.161543 51.0875139,128.647114 52.4798187,129.450962 L83.75,147.504809 C85.1423048,148.308657 86.8576952,148.308657 88.25,147.504809 L119.520181,129.450962 C120.912486,128.647114 121.770181,127.161543 121.770181,125.553848 L121.770181,89.4461524 C121.770181,87.8384573 120.912486,86.3528857 119.520181,85.5490381 L88.25,67.4951905 C86.8576952,66.691343 85.1423048,66.691343 83.75,67.4951905 Z M63.2445397,119.976403 L87.4977373,133.968632 C89.172071,134.934594 89.74632,137.074977 88.7803583,138.749311 C87.8143964,140.423645 85.6740139,140.997894 83.99968,140.031932 L59.7464823,126.039702 C58.0721486,125.07374 57.4978996,122.933358 58.4638613,121.259024 C59.4298232,119.58469 61.5702058,119.010441 63.2445397,119.976403 Z M83.0042304,0.5 L102.5,18.560265 L102.5,61.226 L93.5,56.029 L93.5,31.5 L83,31.5 C76.1994788,31.5 70.6673491,26.0693706 70.5037258,19.3082268 L70.5,19 L70.5,9.5 L13,9.5 C11.0670034,9.5 9.5,11.0670034 9.5,13 L9.5,124 C9.5,125.932997 11.0670034,127.5 13,127.5 L37.675,127.5 L37.6757825,129.164617 C37.6757825,131.923505 38.7281861,134.532545 40.5495373,136.500778 L13,136.5 C6.09644063,136.5 0.5,130.903559 0.5,124 L0.5,13 C0.5,6.09644063 6.09644063,0.5 13,0.5 L83.0042304,0.5 Z M110.5,90 C112.368563,90 113.895126,91.4642776 113.994821,93.3079648 L114,93.5 L114,121.5 C114,123.432997 112.432997,125 110.5,125 C108.631437,125 107.104874,123.535722 107.005179,121.692035 L107,121.5 L107,93.5 C107,91.5670034 108.567003,90 110.5,90 Z M88.7992785,77.7504162 C89.7652402,79.4247502 89.1909912,81.5651327 87.5166575,82.5310946 L63.2490286,96.5316496 C61.5746948,97.4976114 59.4343123,96.9233624 58.4683503,95.2490287 C57.5023886,93.5746948 58.0766376,91.4343123 59.7509713,90.4683503 L84.0186001,76.4677952 C85.692934,75.5018336 87.8333165,76.0760825 88.7992785,77.7504162 Z M79.5,9.522 L79.5,19 C79.5,20.8685634 80.9642776,22.3951264 82.8079648,22.4948211 L83,22.5 L93.5,22.5 L93.5,22.491235 L79.5,9.522 Z" id="Combined-Shape"></path>
            <path d="M37.675,103 L37.675,112 L22,112 L22,103 L37.675,103 Z M38.8185694,81.0002287 C38.0791301,82.4768552 37.6757825,84.1274036 37.6757825,85.8353829 L37.6757825,85.8353829 L37.675,90 L21.5,90 L21.5,81 Z M73.354,59 L57.766,68 L22,68 L22,59 L73.354,59 Z M82,37 L82,46 L22,46 L22,37 L82,37 Z" id="Combined-Shape" fill-opacity="0.6"></path>
        </g>
        <text id="ChemDataExtractor" font-family="Futura-Medium, Futura" font-size="85" font-weight="400" letter-spacing="-0.523077" fill="#000000" fill-opacity="0.75">
            <tspan x="159" y="111.5">ChemDataExtractor</tspan>
        </text>
    </g>
</svg>
