<?xml version="1.0" encoding="UTF-8" standalone="no"?>
<svg
   xmlns:dc="http://purl.org/dc/elements/1.1/"
   xmlns:cc="http://creativecommons.org/ns#"
   xmlns:rdf="http://www.w3.org/1999/02/22-rdf-syntax-ns#"
   xmlns:svg="http://www.w3.org/2000/svg"
   xmlns="http://www.w3.org/2000/svg"
   xmlns:sodipodi="http://sodipodi.sourceforge.net/DTD/sodipodi-0.dtd"
   xmlns:inkscape="http://www.inkscape.org/namespaces/inkscape"
   inkscape:version="1.0 (4035a4fb49, 2020-05-01)"
   sodipodi:docname="logo.svg"
   id="svg93"
   version="1.1"
   viewBox="0 0 1208.7965 216.8401"
   height="216.8401"
   width="1208.7965">
  <metadata
     id="metadata99">
    <rdf:RDF>
      <cc:Work
         rdf:about="">
        <dc:format>image/svg+xml</dc:format>
        <dc:type
           rdf:resource="http://purl.org/dc/dcmitype/StillImage" />
        <dc:title>Artboard</dc:title>
      </cc:Work>
    </rdf:RDF>
  </metadata>
  <defs
     id="defs97" />
  <sodipodi:namedview
     inkscape:current-layer="svg93"
     inkscape:window-maximized="1"
     inkscape:window-y="-11"
     inkscape:window-x="-11"
     inkscape:cy="29.879249"
     inkscape:cx="444.08827"
     inkscape:zoom="1.1614143"
     fit-margin-bottom="0"
     fit-margin-right="0"
     fit-margin-left="0"
     fit-margin-top="0"
     showgrid="false"
     id="namedview95"
     inkscape:window-height="2066"
     inkscape:window-width="3840"
     inkscape:pageshadow="2"
     inkscape:pageopacity="0"
     guidetolerance="10"
     gridtolerance="10"
     objecttolerance="10"
     borderopacity="1"
     bordercolor="#666666"
     pagecolor="#ffffff" />
  <!-- Generator: Sketch 52.6 (67491) - http://www.bohemiancoding.com/sketch -->
  <title
     id="title2">Artboard</title>
  <desc
     id="desc4">Created with Sketch.</desc>
  <text
     inkscape:export-ydpi="100.01"
     inkscape:export-xdpi="100.01"
     y="-22.07399"
     x="-16.36474"
     id="ChemDataExtractor"
     font-family="HelveticaNeue, 'Helvetica Neue'"
     font-size="120px"
     font-weight="normal"
     letter-spacing="2.02588"
     fill="#ffffff"
     style="font-size:96px;fill:#000000;fill-rule:evenodd;stroke:none;stroke-width:1;"><tspan
       x="199.86192"
       y="137.80296"
       id="tspan89"
       style="font-style:normal;font-variant:normal;font-weight:normal;font-stretch:normal;font-size:96px;font-family:'Futura Hv BT';-inkscape-font-specification:'Futura Hv BT';fill:#000000;">ChemDataExtractor 2</tspan></text>
  <path
     inkscape:export-ydpi="100.01"
     inkscape:export-xdpi="100.01"
     style="stroke:none;stroke-width:1.34087;fill:#000000"
     fill-rule="nonzero"
     fill="#000000"
     id="Combined-Shape"
     d="m 123.69586,79.380917 41.92931,24.207893 c 5.60072,3.23357 9.05089,9.20946 9.05089,15.6766 v 48.41581 c 0,6.46713 -3.45017,12.44302 -9.05089,15.67659 l -41.92931,24.2079 c -5.6007,3.23357 -12.50107,3.23357 -18.10177,0 l -41.929314,-24.2079 c -5.60072,-3.23357 -9.05089,-9.20946 -9.05089,-15.67659 v -48.41581 c 0,-6.46714 3.45017,-12.44303 9.05089,-15.67659 L 105.59409,79.380917 c 5.6007,-3.233571 12.50107,-3.233571 18.10177,0 z M 111.62801,89.831982 69.698696,114.03988 c -1.86691,1.07786 -3.01696,3.06982 -3.01696,5.22553 v 48.41581 c 0,2.1557 1.15005,4.14766 3.01696,5.22552 l 41.929314,24.2079 c 1.8669,1.07786 4.16702,1.07786 6.03393,0 l 41.92931,-24.2079 c 1.86691,-1.07786 3.01696,-3.06982 3.01696,-5.22552 v -48.41581 c 0,-2.15571 -1.15005,-4.14767 -3.01696,-5.22553 L 117.66194,89.831982 c -1.86691,-1.07786 -4.16703,-1.07786 -6.03393,0 z m -27.495204,70.370588 32.520444,18.76179 c 2.24506,1.29523 3.01506,4.16522 1.71983,6.41028 -1.29523,2.24506 -4.16522,3.01506 -6.41028,1.71983 L 79.442356,168.33268 c -2.24506,-1.29523 -3.01506,-4.16521 -1.71983,-6.41028 1.29523,-2.24506 4.16522,-3.01506 6.41028,-1.71983 z M 110.62803,0 136.76936,24.216505 V 81.425798 L 124.70152,74.457286 V 41.567034 h -14.07916 c -9.11863,0 -16.536514,-7.281778 -16.755904,-16.347608 l -0.005,-0.413293 V 12.067849 H 16.760947 c -2.591906,0 -4.693052,2.10115 -4.693052,4.693052 V 165.5977 c 0,2.59191 2.101146,4.69305 4.693052,4.69305 h 33.086018 l 0.001,2.23205 c 0,3.6993 1.411141,7.19769 3.853341,9.83685 l -36.940405,-10e-4 C 7.50411,182.35865 0,174.85454 0,165.59775 V 16.760901 C 0,7.50411 7.50411,0 16.760901,0 Z m 36.86831,120.00805 c 2.5055,0 4.55244,1.96341 4.68611,4.43556 l 0.007,0.25749 v 37.54442 c 0,2.59191 -2.10115,4.69305 -4.69305,4.69305 -2.5055,0 -4.55244,-1.96341 -4.68611,-4.43555 l -0.007,-0.2575 V 124.7011 c 0,-2.59191 2.10114,-4.69305 4.69305,-4.69305 z m -97.649013,17.43134 v 12.06785 H 28.829158 v -12.06785 z m 68.551123,-33.85646 c 1.29523,2.24506 0.52523,5.11504 -1.71983,6.41028 l -32.539794,18.77295 c -2.24507,1.29523 -5.11505,0.52523 -6.41028,-1.71983 -1.29523,-2.24506 -0.52523,-5.11506 1.71983,-6.41028 L 111.98817,101.8631 c 2.24506,-1.29524 5.11505,-0.52525 6.41028,1.71983 z m -90.239728,4.35727 23.221984,3.1e-4 c -0.915223,1.82766 -1.446463,3.85403 -1.522772,5.95626 l -0.0094,0.52706 -0.0011,5.58422 H 28.158856 V 107.9402 l 23.22199,3.1e-4 z M 97.689646,78.441016 76.786786,90.508862 H 28.829158 V 78.441016 Z M 109.28149,48.941831 V 61.009679 H 28.829158 V 48.941831 Z m -3.35218,-36.844483 v 12.708785 c 0,2.505504 1.96341,4.55243 4.43555,4.686108 l 0.2575,0.007 h 14.07916 v -0.0118 z" />
</svg>
